<svg width="24" height="24" viewBox="0 0 24 24" fill="none" xmlns="http://www.w3.org/2000/svg">
<path d="M12 24C18.6274 24 24 18.6274 24 12C24 5.37258 18.6274 0 12 0C5.37258 0 0 5.37258 0 12C0 18.6274 5.37258 24 12 24Z" fill="#D9D9D9"/>
<path d="M12.129 5.41797C12.1483 5.42673 12.168 5.43441 12.188 5.44097C12.3718 5.48251 12.5354 5.58641 12.6512 5.73499C12.7669 5.88357 12.8277 6.06767 12.823 6.25597C12.823 7.3093 12.823 8.36264 12.823 9.41597V12.572C12.874 12.525 12.908 12.496 12.94 12.464C13.405 12.001 13.864 11.533 14.334 11.076C14.4122 11.0007 14.5045 10.9416 14.6056 10.9022C14.7067 10.8627 14.8146 10.8436 14.9231 10.846C15.0316 10.8484 15.1385 10.8723 15.2378 10.9162C15.337 10.9601 15.4266 11.0232 15.5014 11.1018C15.5761 11.1805 15.6346 11.2732 15.6734 11.3745C15.7122 11.4758 15.7306 11.5839 15.7275 11.6923C15.7244 11.8008 15.6999 11.9076 15.6554 12.0066C15.6108 12.1055 15.5472 12.1947 15.468 12.269C14.7347 12.9976 14.0034 13.7273 13.274 14.458C13.053 14.679 12.832 14.901 12.609 15.121C12.5318 15.2068 12.4375 15.2754 12.332 15.3224C12.2266 15.3694 12.1125 15.3937 11.997 15.3937C11.8816 15.3937 11.7675 15.3694 11.662 15.3224C11.5566 15.2754 11.4622 15.2068 11.385 15.121C10.4284 14.1683 9.47237 13.2146 8.51703 12.26C8.40482 12.1586 8.32365 12.0274 8.28294 11.8818C8.24223 11.7361 8.24365 11.5819 8.28703 11.437C8.32157 11.2936 8.39641 11.163 8.50273 11.0608C8.60904 10.9586 8.74239 10.8889 8.88703 10.86C9.02932 10.8229 9.17902 10.8255 9.31999 10.8672C9.46096 10.909 9.58787 10.9884 9.68703 11.097C10.1417 11.5516 10.5967 12.006 11.052 12.46C11.0827 12.4956 11.1108 12.5333 11.136 12.573L11.176 12.554V12.406C11.176 10.423 11.185 8.43997 11.17 6.45797C11.1359 6.23193 11.1859 6.00122 11.3105 5.80955C11.435 5.61788 11.6256 5.47856 11.846 5.41797L12.129 5.41797Z" fill="black"/>
<path d="M5.4082 17.599C5.4252 17.556 5.4432 17.514 5.4592 17.471C5.51601 17.3166 5.6177 17.1828 5.75118 17.0868C5.88466 16.9907 6.04382 16.9368 6.2082 16.932C6.2592 16.932 6.3082 16.932 6.3622 16.932H17.5862C17.6979 16.9112 17.8125 16.9127 17.9236 16.9363C18.0347 16.96 18.14 17.0054 18.2335 17.0699C18.3269 17.1344 18.4068 17.2167 18.4683 17.3121C18.5299 17.4076 18.572 17.5142 18.5922 17.626V17.883C18.5425 18.1043 18.4116 18.299 18.2253 18.4286C18.0391 18.5582 17.8111 18.6133 17.5862 18.583C13.8442 18.572 10.1022 18.577 6.3602 18.577C6.3082 18.577 6.2602 18.577 6.2062 18.577C6.0446 18.5711 5.88826 18.518 5.75642 18.4244C5.62458 18.3308 5.523 18.2006 5.4642 18.05L5.4082 17.912V17.604" fill="black"/>
</svg>
