<svg width="24" height="24" viewBox="0 0 24 24" fill="none" xmlns="http://www.w3.org/2000/svg">
<circle cx="12" cy="12" r="12" fill="#D9D9D9"/>
<path d="M12.3104 7.86169H8.68976C8.41539 7.86169 8.15227 7.97068 7.95827 8.16469C7.76426 8.35869 7.65527 8.62182 7.65527 8.89618V16.1376C7.65527 16.4119 7.76426 16.675 7.95827 16.869C8.15227 17.063 8.41539 17.172 8.68976 17.172H15.9311C16.2055 17.172 16.4686 17.063 16.6626 16.869C16.8566 16.675 16.9656 16.4119 16.9656 16.1376V12.5169" stroke="#010529" stroke-linecap="round" stroke-linejoin="round"/>
<path d="M16.1898 7.08584C16.3956 6.88007 16.6747 6.76447 16.9657 6.76447C17.2567 6.76447 17.5358 6.88007 17.7415 7.08584C17.9473 7.29161 18.0629 7.5707 18.0629 7.8617C18.0629 8.1527 17.9473 8.43179 17.7415 8.63756L12.8278 13.5514L10.7588 14.0686L11.276 11.9996L16.1898 7.08584Z" stroke="#010529" stroke-linecap="round" stroke-linejoin="round"/>
</svg>
