<svg width="24" height="24" viewBox="0 0 24 24" fill="none" xmlns="http://www.w3.org/2000/svg">
<path d="M12 24C18.6274 24 24 18.6274 24 12C24 5.37258 18.6274 0 12 0C5.37258 0 0 5.37258 0 12C0 18.6274 5.37258 24 12 24Z" fill="#D9D9D9"/>
<path d="M5.13989 12.0802V11.9202C5.19145 11.8164 5.24991 11.7162 5.31489 11.6202C5.75966 11.0529 6.25212 10.5246 6.78689 10.0412C7.69557 9.18218 8.75907 8.5035 9.92089 8.04118C10.6964 7.73611 11.529 7.60371 12.3609 7.65318C13.3737 7.73638 14.3538 8.05187 15.2249 8.57518C16.5423 9.352 17.7018 10.3697 18.6429 11.5752C18.7223 11.6868 18.7944 11.8034 18.8589 11.9242V12.0842C18.8074 12.188 18.7489 12.2882 18.6839 12.3842C18.2389 12.9507 17.7465 13.4783 17.2119 13.9612C16.3032 14.8201 15.2397 15.4988 14.0779 15.9612C13.3029 16.2654 12.471 16.3972 11.6399 16.3472C10.627 16.2642 9.64694 15.9487 8.77589 15.4252C7.44657 14.6434 6.27785 13.6162 5.33189 12.3982C5.2608 12.2966 5.19666 12.1904 5.13989 12.0802M6.13989 12.0182C6.62189 12.4972 7.06589 12.9742 7.54589 13.4102C8.37721 14.1966 9.36264 14.8021 10.4399 15.1882C11.0903 15.418 11.7836 15.501 12.4699 15.4312C13.3442 15.32 14.1838 15.0194 14.9299 14.5502C15.9021 13.9515 16.7786 13.2099 17.5299 12.3502C17.6299 12.2382 17.7299 12.1232 17.8299 11.9962C17.5669 11.7132 17.3199 11.4322 17.0579 11.1662C16.2013 10.2552 15.1764 9.51866 14.0399 8.99718C13.4648 8.73851 12.8474 8.58702 12.2179 8.55018C11.2676 8.52457 10.3277 8.75384 9.49589 9.21418C8.55757 9.71406 7.70433 10.3594 6.96789 11.1262C6.69289 11.4042 6.43489 11.6982 6.13689 12.0192" fill="black"/>
<path d="M11.9959 14.7032C11.4622 14.7002 10.9414 14.5391 10.4991 14.2403C10.0569 13.9415 9.71322 13.5183 9.5114 13.0242C9.30958 12.5301 9.25872 11.9873 9.36523 11.4644C9.47175 10.9414 9.73087 10.4617 10.1099 10.0859C10.4889 9.71015 10.9707 9.45512 11.4946 9.35306C12.0184 9.25099 12.5608 9.30647 13.0531 9.51249C13.5455 9.7185 13.9657 10.0658 14.2608 10.5105C14.5558 10.9553 14.7125 11.4775 14.7109 12.0112C14.7069 12.7279 14.4189 13.4138 13.9099 13.9185C13.401 14.4231 12.7126 14.7053 11.9959 14.7032ZM13.8069 11.9972C13.8071 11.6395 13.7011 11.2897 13.5024 10.9923C13.3036 10.6948 13.0211 10.4631 12.6905 10.3264C12.3599 10.1896 11.9962 10.1541 11.6454 10.2243C11.2946 10.2945 10.9726 10.4672 10.72 10.7206C10.4675 10.974 10.2959 11.2966 10.2269 11.6476C10.1578 11.9986 10.1946 12.3622 10.3324 12.6923C10.4702 13.0224 10.7029 13.3042 11.001 13.502C11.2991 13.6997 11.6492 13.8046 12.0069 13.8032C12.4848 13.8013 12.9424 13.6103 13.2798 13.2718C13.6171 12.9334 13.8066 12.475 13.8069 11.9972Z" fill="black"/>
</svg>
