<svg width="140" height="37" viewBox="0 0 140 37" fill="none" xmlns="http://www.w3.org/2000/svg">
<path d="M33.1272 7.59619L32.33 8.16562C36.392 13.8751 36.521 21.4979 32.6565 27.344L31.6847 26.3722C35.0937 21.012 34.919 14.1181 31.2367 8.94005L30.9027 8.46932L27.3342 12.0302L27.5392 12.3642C28.2757 13.5486 28.7768 14.8697 29.0046 16.2515C28.1314 16.5704 27.6227 17.4815 27.8201 18.3926C28.0175 19.3037 28.8603 19.9262 29.7866 19.8503C30.7128 19.7744 31.4493 19.0303 31.4949 18.1041C31.548 17.1778 30.9027 16.3502 29.9916 16.1756V16.1452H29.984C29.7638 14.7482 29.2855 13.4044 28.5718 12.182L30.7736 9.9878C32.33 12.3566 33.1576 15.1203 33.1576 17.9522C33.1576 20.6779 32.4135 23.3504 30.9862 25.6737L29.7562 24.4437L29.0653 25.1346L32.8008 28.8625L33.1348 28.3918C37.5612 22.166 37.5612 13.8295 33.1348 7.60378L33.1272 7.59619ZM30.5079 17.8231C30.5914 18.2407 30.3712 18.6507 29.9764 18.8178C29.5892 18.9772 29.1336 18.8405 28.8983 18.4913C28.6629 18.142 28.7085 17.6713 29.0046 17.3752C29.1716 17.2082 29.3918 17.1171 29.6271 17.1171C30.0523 17.1171 30.4167 17.4132 30.5003 17.8307L30.5079 17.8231Z" fill="#8BD893"/>
<path d="M18.4592 35.4679C15.1337 35.4679 11.8841 34.4961 9.11291 32.6587L10.0847 31.6869C12.5599 33.2737 15.4298 34.124 18.368 34.1316C21.6404 34.1468 24.8444 33.137 27.5169 31.2389L27.9876 30.9049L24.4268 27.3364L24.0927 27.5414C22.9083 28.2855 21.5872 28.779 20.213 29.0068C19.8941 28.1336 18.983 27.6325 18.0719 27.8299C17.1609 28.0273 16.5459 28.8701 16.6218 29.7964C16.6977 30.7226 17.4494 31.4515 18.3756 31.4971C19.3019 31.5426 20.1219 30.8973 20.2965 29.9862C21.7011 29.766 23.0526 29.2877 24.2825 28.574L26.4767 30.7758C24.0623 32.3398 21.2456 33.175 18.3756 33.1598C15.6955 33.1598 13.0761 32.4006 10.7984 30.9884L12.0284 29.7584L11.3375 29.0675L7.60962 32.803L8.08035 33.137C14.3061 37.5634 22.6426 37.5634 28.8683 33.137L28.2989 32.3398C25.429 34.3898 21.9896 35.4831 18.4667 35.4831L18.4592 35.4679ZM19.0817 30.2595C18.7856 30.5556 18.3225 30.6012 17.9732 30.3658C17.624 30.1304 17.4873 29.6825 17.6544 29.2953C17.8138 28.9081 18.2314 28.6879 18.6414 28.7714C19.0514 28.8549 19.3475 29.2117 19.3475 29.6369C19.3475 29.8723 19.2564 30.0925 19.0893 30.2595H19.0817Z" fill="#76C7E4"/>
<path d="M17.9882 0.975623C21.3137 0.975623 24.5632 1.94745 27.3345 3.78481L26.3626 4.75664C23.842 3.15464 20.9189 2.31189 17.9351 2.31948C14.7083 2.31948 11.5575 3.33686 8.9305 5.21218L8.45977 5.54625L12.0282 9.11467L12.3547 8.90208C13.5391 8.16562 14.8602 7.66452 16.242 7.43675C16.4546 8.03655 16.9633 8.4845 17.5858 8.62117C18.2084 8.75783 18.8538 8.56802 19.3017 8.12007C19.8636 7.55823 20.0078 6.6927 19.651 5.97901C19.2941 5.26533 18.5197 4.85534 17.7301 4.96922C16.9405 5.07552 16.3103 5.68291 16.1585 6.46493C14.7539 6.68511 13.4024 7.16343 12.1725 7.87711L9.97825 5.67532C12.3471 4.11888 15.1107 3.2913 17.9427 3.2913C20.6683 3.2913 23.3409 4.03536 25.6641 5.46273L24.4342 6.6927L25.1251 7.38361L28.853 3.64815L28.3822 3.31408C22.1565 -1.10469 13.82 -1.10469 7.59424 3.31408L8.16367 4.11128C11.0336 2.06134 14.4654 0.968031 17.9882 0.975623ZM17.3657 6.18401C17.6618 5.8879 18.1325 5.84235 18.4817 6.07771C18.831 6.31308 18.9676 6.76103 18.8082 7.14824C18.6488 7.53545 18.2312 7.75563 17.8212 7.67212C17.4112 7.5886 17.1151 7.22417 17.1151 6.80658C17.1151 6.57122 17.2062 6.34345 17.3732 6.17641L17.3657 6.18401Z" fill="#76C7E4"/>
<path d="M8.90778 24.0791C8.16372 22.8947 7.67022 21.5736 7.44245 20.1918C8.15613 19.9336 8.64205 19.2579 8.66482 18.4987C8.6876 17.7394 8.23965 17.0409 7.54115 16.7372C6.84265 16.4335 6.03026 16.593 5.4912 17.132C5.00529 17.6179 4.83066 18.3392 5.03566 18.9922C5.24065 19.6527 5.7873 20.1386 6.47062 20.2677C6.6908 21.6723 7.16912 23.0237 7.8828 24.2613L5.68101 26.4555C2.58331 21.7102 2.4998 15.606 5.46842 10.7772L6.69839 12.0072L7.3893 11.3162L3.65384 7.58838L3.31978 8.05911C-1.10659 14.2849 -1.10659 22.6213 3.31978 28.8471L4.11698 28.2777C0.055045 22.5682 -0.0740261 14.9454 3.7905 9.09927L4.76233 10.0711C1.35334 15.4313 1.52797 22.3252 5.21028 27.5032L5.54435 27.974L9.11277 24.4131L8.90778 24.0791ZM6.80468 19.3338C6.37951 19.3338 6.01508 19.0377 5.93156 18.6201C5.84804 18.2026 6.06822 17.7926 6.46303 17.6255C6.85024 17.4661 7.30578 17.6028 7.54115 17.952C7.77651 18.3013 7.73096 18.772 7.43485 19.0681C7.26782 19.2351 7.04764 19.3262 6.81228 19.3262L6.80468 19.3338Z" fill="#8BD893"/>
<path d="M22.0955 18.1118C23.4166 16.0543 22.7712 13.3514 20.653 12.0607C18.5347 10.77 15.7331 11.3773 14.3892 13.4273C13.0454 15.4696 13.6604 18.1801 15.7635 19.4936L14.1539 25.0588H22.3081L20.6985 19.4936C21.2679 19.1368 21.7387 18.666 22.0955 18.1118ZM19.461 18.9925L20.9187 24.0415H15.5281L16.9858 18.9925L16.6062 18.8027C16.0444 18.5218 15.5736 18.0966 15.2396 17.5803C14.3285 16.1606 14.6246 14.308 15.9381 13.2223C17.2516 12.1366 19.1876 12.1366 20.5011 13.2223C21.8146 14.308 22.1107 16.1606 21.1996 17.5803C20.8655 18.0966 20.4024 18.5218 19.8482 18.8027L19.4685 18.9925H19.461Z" fill="white"/>
<path d="M51.2488 15.1852C51.3551 13.7503 50.5598 12.7671 49.0337 12.7671C46.8091 12.7671 46.5661 14.1641 46.5661 15.2346C46.5661 16.1913 46.9913 16.7835 47.872 17.1176L50.0587 17.9451C52.6704 18.917 53.1488 19.8432 53.1488 21.6654C53.1488 24.2848 51.5088 25.8109 48.8591 25.8109C47.5 25.8109 45.8752 25.4236 45.0932 23.6167C44.7971 22.9333 44.8123 21.8324 44.7971 21.0884H46.3232C46.2473 23.1307 46.6345 24.4214 48.935 24.4214C50.4838 24.4214 51.5695 23.6318 51.5695 22.0071C51.5695 19.904 50.7192 19.8888 49.3222 19.3497C48.5705 19.0536 47.3558 18.6664 46.6193 18.2792C45.3134 17.6187 44.9793 16.5102 44.9793 15.1435C44.9793 12.8582 46.5813 11.3701 48.8287 11.3701C51.3494 11.3701 52.8982 12.676 52.7464 15.2802H51.2488V15.1852Z" fill="white" stroke="white"/>
<path d="M111.227 15.1842C111.333 13.7493 110.538 12.7661 109.012 12.7661C106.787 12.7661 106.544 14.1631 106.544 15.2337C106.544 16.1903 106.969 16.7825 107.85 17.1166L110.037 17.9442C112.648 18.916 113.127 19.8423 113.127 21.6644C113.127 24.2838 111.487 25.8099 108.837 25.8099C107.478 25.8099 105.853 25.4227 105.071 23.6157C104.775 22.9324 104.79 21.8315 104.775 21.0874H106.301C106.225 23.1298 106.613 24.4205 108.913 24.4205C110.462 24.4205 111.548 23.6309 111.548 22.0061C111.548 19.903 110.697 19.8878 109.3 19.3487C108.549 19.0526 107.334 18.6654 106.597 18.2782C105.291 17.6177 104.957 16.5092 104.957 15.1426C104.957 12.8573 106.559 11.3691 108.807 11.3691C111.327 11.3691 112.876 12.675 112.724 15.2792H111.227V15.1842Z" fill="white" stroke="white"/>
<path d="M56.9453 25.8108V12.1445H63.7405V13.5112H58.4486V18.0286H63.414V19.3953H58.4486V24.4442H63.7785V25.8108H56.9453Z" fill="white" stroke="white"/>
<path d="M76.6832 25.0548L76.1992 25.8103L74.6959 24.5424C74.1188 25.1194 72.9952 25.5142 72.0082 25.5142C68.0829 25.5142 67.6122 21.8851 67.5818 18.1344C67.5818 15.0367 68.0449 11.3848 71.9778 11.3848C75.9106 11.3848 76.4573 15.0291 76.4573 18.1344C76.4573 19.0759 76.3282 22.3786 75.4171 23.5706L77.0628 24.6752L76.6832 25.0548ZM72.5074 22.0178L73.0407 21.5965L74.2935 22.6063C74.5972 22.0825 74.9236 20.1692 74.9009 18.7266C74.8629 14.8089 74.4681 12.7362 71.993 12.7362C69.5178 12.7362 69.123 14.8089 69.1079 18.7266C69.0927 21.7408 69.6621 24.2311 71.955 24.1628C72.5472 24.1476 73.0331 24.0565 73.5646 23.6541L72.1278 22.7771L72.5074 22.0178Z" fill="white" stroke="white"/>
<path d="M85.0746 11.3848C89.1138 11.3848 89.6149 15.105 89.5921 18.2787C89.5769 22.1128 89.0758 25.8103 85.0366 25.8103C80.9975 25.8103 80.5192 22.1052 80.4812 18.2787C80.4812 15.1126 80.9595 11.3848 85.0746 11.3848ZM84.9987 12.7666C82.6374 12.7666 82.0452 15.2341 82.068 18.309C82.0832 22.3102 82.4932 24.4285 85.0366 24.4285C87.5801 24.4285 87.9901 22.3102 88.0053 18.309C88.0205 15.2341 87.4358 12.7666 84.9987 12.7666Z" fill="white" stroke="white"/>
<path d="M93.3884 25.8103V11.3848H97.0328C98.1033 11.3848 99.4548 11.5214 100.275 12.3262C101.11 13.131 101.406 14.2471 101.406 15.4011C101.406 16.9955 100.943 18.5596 99.4472 19.2657C98.4829 19.6908 96.9113 19.6908 95.856 19.6908H94.9297V25.8103H93.396H93.3884ZM94.9221 18.2483H96.4254C98.5361 18.2255 99.8268 17.9218 99.8116 15.4391C99.8116 13.1158 98.3842 12.7818 96.5089 12.8273H94.9221V18.2483Z" fill="white" stroke="white"/>
<path d="M116.925 25.0516V22.7739H119.203V25.0516H116.925Z" fill="white" stroke="white"/>
<path d="M122.953 25.8512V11.3491H125.475V25.8512H122.953Z" fill="white"/>
<path d="M134.482 11.3491C138.521 11.3491 139.022 15.0694 138.999 18.243C138.984 22.0772 138.483 25.7747 134.444 25.7747C130.404 25.7747 129.926 22.0696 129.888 18.243C129.888 15.077 130.367 11.3491 134.482 11.3491ZM134.406 12.7309C132.044 12.7309 131.452 15.1985 131.475 18.2734C131.49 22.2746 131.9 24.3929 134.444 24.3929C136.987 24.3929 137.397 22.2746 137.412 18.2734C137.435 15.1985 136.843 12.7309 134.406 12.7309Z" fill="white" stroke="white"/>
</svg>
