<svg width="24" height="24" viewBox="0 0 24 24" fill="none" xmlns="http://www.w3.org/2000/svg">
<circle cx="12" cy="12" r="12" fill="#D9D9D9"/>
<path d="M7.3457 8.89624H8.38019H16.656" stroke="#010529" stroke-linecap="round" stroke-linejoin="round"/>
<path d="M9.93161 8.89624V7.86175C9.93161 7.58739 10.0406 7.32427 10.2346 7.13026C10.4286 6.93626 10.6917 6.82727 10.9661 6.82727H13.0351C13.3094 6.82727 13.5725 6.93626 13.7665 7.13026C13.9605 7.32427 14.0695 7.58739 14.0695 7.86175V8.89624M15.6213 8.89624V16.1376C15.6213 16.412 15.5123 16.6751 15.3183 16.8691C15.1243 17.0631 14.8611 17.1721 14.5868 17.1721H9.41437C9.14 17.1721 8.87688 17.0631 8.68288 16.8691C8.48887 16.6751 8.37988 16.412 8.37988 16.1376V8.89624H15.6213Z" stroke="#010529" stroke-linecap="round" stroke-linejoin="round"/>
<path d="M10.9668 11.4825V14.5859" stroke="#010529" stroke-linecap="round" stroke-linejoin="round"/>
<path d="M13.0352 11.4825V14.5859" stroke="#010529" stroke-linecap="round" stroke-linejoin="round"/>
</svg>
