<svg width="13" height="19" viewBox="0 0 13 19" fill="none" xmlns="http://www.w3.org/2000/svg">
<path d="M7.68044 0.939746L7.68044 18.3904C7.68044 18.6107 7.85428 18.8121 8.12959 18.9107C8.4049 19.0092 8.73435 18.988 8.98056 18.8558L12.2307 17.1107C12.5895 16.9181 12.6624 16.5535 12.3931 16.2964C12.1238 16.0393 11.6145 15.9873 11.2557 16.1801L9.30566 17.2272L9.30566 0.939667C9.30566 0.618504 8.94166 0.35791 8.49306 0.35791C8.04446 0.35791 7.68046 0.618504 7.68046 0.939666L7.68044 0.939746Z" fill="#717171"/>
<path d="M4.875 18.0324L4.875 0.581668C4.875 0.361391 4.70116 0.160009 4.42585 0.0614375C4.15055 -0.0371141 3.8211 -0.0158836 3.57488 0.116363L0.32476 1.86143C-0.0340639 2.05405 -0.106974 2.41866 0.162351 2.67573C0.431677 2.93281 0.940965 2.98482 1.29977 2.792L3.24979 1.74496L3.24978 18.0324C3.24978 18.3536 3.61378 18.6142 4.06238 18.6142C4.51099 18.6142 4.87498 18.3536 4.87498 18.0324L4.875 18.0324Z" fill="#717171"/>
</svg>
