<svg width="32" height="32" viewBox="0 0 32 32" fill="none" xmlns="http://www.w3.org/2000/svg">
<path d="M8.62093 30.9998H4.04837C3.23989 30.9998 2.46453 30.6837 1.89285 30.1211C1.32117 29.5585 1 28.7955 1 27.9998V17.4999C1 16.7043 1.32117 15.9412 1.89285 15.3786C2.46453 14.816 3.23989 14.4999 4.04837 14.4999H8.62093M19.2902 11.4999V5.49997C19.2902 4.3065 18.8085 3.16192 17.951 2.31801C17.0934 1.4741 15.9304 1 14.7177 1L8.62093 14.4999V30.9998H25.8137C26.5489 31.008 27.2623 30.7544 27.8225 30.2858C28.3826 29.8172 28.7519 29.1652 28.8621 28.4498L30.9655 14.9499C31.0318 14.5199 31.0023 14.0809 30.8791 13.6633C30.7559 13.2457 30.5419 12.8594 30.2519 12.5312C29.962 12.203 29.603 11.9408 29.1998 11.7628C28.7967 11.5847 28.359 11.495 27.9171 11.4999H19.2902Z" stroke="#717171" stroke-width="2" stroke-linecap="round" stroke-linejoin="round"/>
</svg>
